<svg xmlns="http://www.w3.org/2000/svg" width="1600" height="900" viewBox="0 0 1600 900">
  <defs>
    <linearGradient id="bg" x1="0" y1="0" x2="1" y2="1">
      <stop offset="0%" stop-color="#0b1220"/>
      <stop offset="55%" stop-color="#101a33"/>
      <stop offset="100%" stop-color="#1b2d4a"/>
    </linearGradient>
    <radialGradient id="glow" cx="50%" cy="42%" r="50%">
      <stop offset="0%" stop-color="#4fb5ff" stop-opacity="0.24"/>
      <stop offset="55%" stop-color="#4fb5ff" stop-opacity="0.08"/>
      <stop offset="100%" stop-color="#4fb5ff" stop-opacity="0"/>
    </radialGradient>
    <linearGradient id="panel" x1="0" y1="0" x2="0" y2="1">
      <stop offset="0%" stop-color="#f6f8fc"/>
      <stop offset="100%" stop-color="#d7dde8"/>
    </linearGradient>
    <linearGradient id="panelDark" x1="0" y1="0" x2="1" y2="1">
      <stop offset="0%" stop-color="#101827"/>
      <stop offset="100%" stop-color="#23324d"/>
    </linearGradient>
    <linearGradient id="ssd" x1="0" y1="0" x2="1" y2="1">
      <stop offset="0%" stop-color="#f59e0b"/>
      <stop offset="100%" stop-color="#ef4444"/>
    </linearGradient>
    <filter id="shadow" x="-30%" y="-30%" width="160%" height="160%">
      <feDropShadow dx="0" dy="28" stdDeviation="32" flood-color="#000000" flood-opacity="0.35"/>
    </filter>
    <filter id="softShadow" x="-30%" y="-30%" width="160%" height="160%">
      <feDropShadow dx="0" dy="10" stdDeviation="16" flood-color="#000000" flood-opacity="0.22"/>
    </filter>
    <style>
      .title { font-family: -apple-system, BlinkMacSystemFont, "PingFang SC", "Hiragino Sans GB", "Microsoft YaHei", sans-serif; font-weight: 800; fill: #ffffff; }
      .subtitle { font-family: -apple-system, BlinkMacSystemFont, "PingFang SC", "Hiragino Sans GB", "Microsoft YaHei", sans-serif; font-weight: 600; fill: rgba(255,255,255,0.82); }
      .label { font-family: -apple-system, BlinkMacSystemFont, "PingFang SC", "Hiragino Sans GB", "Microsoft YaHei", sans-serif; font-weight: 700; fill: #dce6f7; letter-spacing: 1px; }
      .small { font-family: -apple-system, BlinkMacSystemFont, "PingFang SC", "Hiragino Sans GB", "Microsoft YaHei", sans-serif; font-weight: 600; fill: rgba(255,255,255,0.72); }
    </style>
  </defs>

  <rect width="1600" height="900" fill="url(#bg)"/>
  <rect width="1600" height="900" fill="url(#glow)"/>

  <g opacity="0.25">
    <circle cx="210" cy="170" r="160" fill="#60a5fa"/>
    <circle cx="1430" cy="160" r="120" fill="#2dd4bf"/>
    <circle cx="1380" cy="760" r="220" fill="#f59e0b"/>
  </g>

  <g filter="url(#softShadow)" opacity="0.4">
    <rect x="140" y="610" width="1320" height="18" rx="9" fill="#0a1020"/>
  </g>

  <g transform="translate(112,128)">
    <text class="label" x="0" y="0" font-size="26">MAC 外挂硬盘升级实录</text>
    <text class="title" x="0" y="88" font-size="70">避开大模型的坑</text>
    <text class="title" x="0" y="168" font-size="70">才是最稳妥的迁移方案</text>
    <text class="subtitle" x="0" y="236" font-size="28">M 系列 Mac · 500G 升级到 1TB · 恢复模式与数据迁移</text>
  </g>

  <g transform="translate(440,270)" filter="url(#shadow)">
    <rect x="105" y="250" width="510" height="28" rx="14" fill="#0f172a"/>
    <rect x="155" y="70" width="410" height="220" rx="28" fill="url(#panel)"/>
    <rect x="172" y="88" width="376" height="180" rx="18" fill="url(#panelDark)"/>
    <rect x="300" y="286" width="100" height="16" rx="8" fill="#8aa0bf"/>
    <rect x="215" y="92" width="210" height="24" rx="12" fill="#23324d" opacity="0.8"/>
    <circle cx="200" cy="104" r="7" fill="#ef4444"/>
    <circle cx="225" cy="104" r="7" fill="#f59e0b"/>
    <circle cx="250" cy="104" r="7" fill="#10b981"/>

    <rect x="475" y="88" width="54" height="180" rx="14" fill="#edf2f7"/>
    <rect x="489" y="104" width="26" height="148" rx="10" fill="#d6deea"/>

    <rect x="0" y="72" width="132" height="110" rx="18" fill="#0e1728" opacity="0.95"/>
    <rect x="18" y="88" width="96" height="78" rx="12" fill="#132033"/>
    <path d="M34 114h64M34 130h64M34 146h42" stroke="#5dd6ff" stroke-width="6" stroke-linecap="round" opacity="0.85"/>

    <rect x="598" y="122" width="150" height="80" rx="18" fill="url(#ssd)"/>
    <rect x="618" y="142" width="108" height="10" rx="5" fill="#fff" opacity="0.75"/>
    <rect x="618" y="164" width="70" height="10" rx="5" fill="#fff" opacity="0.55"/>
    <rect x="628" y="76" width="20" height="52" rx="10" fill="#94a3b8"/>
    <rect x="656" y="76" width="20" height="52" rx="10" fill="#94a3b8"/>

    <path d="M538 176h42" stroke="#f8fafc" stroke-width="8" stroke-linecap="round"/>
    <path d="M576 158l18 18-18 18" fill="none" stroke="#f8fafc" stroke-width="8" stroke-linecap="round" stroke-linejoin="round"/>

    <path d="M178 196c120 58 250 58 370 0" fill="none" stroke="#7dd3fc" stroke-width="6" stroke-linecap="round" stroke-dasharray="18 12" opacity="0.55"/>
    <path d="M188 210c100 42 224 42 352 0" fill="none" stroke="#f59e0b" stroke-width="6" stroke-linecap="round" stroke-dasharray="18 12" opacity="0.42"/>
  </g>

  <g transform="translate(118,780)">
    <rect x="0" y="0" width="158" height="42" rx="21" fill="rgba(255,255,255,0.10)"/>
    <text class="small" x="24" y="28" font-size="20">恢复模式 · APFS · 迁移助理</text>
  </g>
</svg>
