<svg width="1600" height="900" viewBox="0 0 1600 900" fill="none" xmlns="http://www.w3.org/2000/svg">
  <defs>
    <linearGradient id="bg" x1="192" y1="80" x2="1418" y2="850" gradientUnits="userSpaceOnUse">
      <stop stop-color="#141817"/>
      <stop offset="0.48" stop-color="#1E2622"/>
      <stop offset="1" stop-color="#29322E"/>
    </linearGradient>
    <radialGradient id="halo" cx="0" cy="0" r="1" gradientUnits="userSpaceOnUse" gradientTransform="translate(1080 256) rotate(90) scale(360 460)">
      <stop stop-color="#62A37D" stop-opacity="0.38"/>
      <stop offset="0.42" stop-color="#62A37D" stop-opacity="0.11"/>
      <stop offset="1" stop-color="#62A37D" stop-opacity="0"/>
    </radialGradient>
    <linearGradient id="glass" x1="394" y1="248" x2="1236" y2="732" gradientUnits="userSpaceOnUse">
      <stop stop-color="#F7FAF2" stop-opacity="0.18"/>
      <stop offset="1" stop-color="#F7FAF2" stop-opacity="0.04"/>
    </linearGradient>
    <linearGradient id="accent" x1="0" y1="0" x2="1" y2="1">
      <stop stop-color="#A6D4B8"/>
      <stop offset="1" stop-color="#4C8A69"/>
    </linearGradient>
    <filter id="softShadow" x="0" y="0" width="1600" height="900" filterUnits="userSpaceOnUse" color-interpolation-filters="sRGB">
      <feDropShadow dx="0" dy="30" stdDeviation="46" flood-color="#0B100E" flood-opacity="0.34"/>
    </filter>
  </defs>

  <rect width="1600" height="900" fill="url(#bg)"/>
  <circle cx="1080" cy="256" r="460" fill="url(#halo)"/>

  <g opacity="0.2">
    <path d="M0 676H1600" stroke="#EDF4EC"/>
    <path d="M0 580H1600" stroke="#EDF4EC"/>
    <path d="M0 484H1600" stroke="#EDF4EC"/>
    <path d="M0 388H1600" stroke="#EDF4EC"/>
    <path d="M0 292H1600" stroke="#EDF4EC"/>
    <path d="M248 0V900" stroke="#EDF4EC"/>
    <path d="M472 0V900" stroke="#EDF4EC"/>
    <path d="M696 0V900" stroke="#EDF4EC"/>
    <path d="M920 0V900" stroke="#EDF4EC"/>
    <path d="M1144 0V900" stroke="#EDF4EC"/>
    <path d="M1368 0V900" stroke="#EDF4EC"/>
  </g>

  <g filter="url(#softShadow)">
    <rect x="338" y="234" width="714" height="430" rx="34" fill="#101614" stroke="#F7FAF2" stroke-opacity="0.14"/>
    <rect x="338" y="234" width="714" height="430" rx="34" fill="url(#glass)"/>
    <rect x="338" y="234" width="714" height="64" rx="34" fill="#F7FAF2" fill-opacity="0.08"/>
    <circle cx="386" cy="266" r="9" fill="#D66B61"/>
    <circle cx="418" cy="266" r="9" fill="#D7A85C"/>
    <circle cx="450" cy="266" r="9" fill="#77B18C"/>

    <rect x="386" y="338" width="260" height="20" rx="10" fill="#A6D4B8" fill-opacity="0.48"/>
    <rect x="386" y="386" width="430" height="16" rx="8" fill="#F7FAF2" fill-opacity="0.18"/>
    <rect x="386" y="426" width="366" height="16" rx="8" fill="#F7FAF2" fill-opacity="0.12"/>
    <rect x="386" y="466" width="482" height="16" rx="8" fill="#F7FAF2" fill-opacity="0.16"/>
    <rect x="386" y="544" width="204" height="22" rx="11" fill="#F7FAF2" fill-opacity="0.1"/>
    <rect x="616" y="544" width="152" height="22" rx="11" fill="#A6D4B8" fill-opacity="0.38"/>
    <rect x="794" y="544" width="198" height="22" rx="11" fill="#F7FAF2" fill-opacity="0.1"/>

    <path d="M420 620H828" stroke="#A6D4B8" stroke-width="2" stroke-linecap="round" stroke-dasharray="8 14"/>
    <circle cx="420" cy="620" r="7" fill="#A6D4B8"/>
    <circle cx="624" cy="620" r="7" fill="#A6D4B8"/>
    <circle cx="828" cy="620" r="7" fill="#A6D4B8"/>
  </g>

  <g filter="url(#softShadow)">
    <rect x="934" y="340" width="332" height="256" rx="28" fill="#F7FAF2" fill-opacity="0.09" stroke="#F7FAF2" stroke-opacity="0.13"/>
    <path d="M1098 400C1140 400 1174 434 1174 476C1174 518 1140 552 1098 552C1056 552 1022 518 1022 476C1022 434 1056 400 1098 400Z" fill="#A6D4B8" fill-opacity="0.08" stroke="#A6D4B8" stroke-opacity="0.48" stroke-width="2"/>
    <path d="M1098 428L1140 452V500L1098 524L1056 500V452L1098 428Z" fill="url(#accent)" fill-opacity="0.24" stroke="#A6D4B8" stroke-width="2"/>
    <path d="M1057 452L1098 476L1140 452" stroke="#D7EBDD" stroke-width="2" stroke-opacity="0.6"/>
    <path d="M1098 476V523" stroke="#D7EBDD" stroke-width="2" stroke-opacity="0.6"/>
    <circle cx="1098" cy="476" r="10" fill="#D7EBDD"/>
    <rect x="974" y="558" width="248" height="10" rx="5" fill="#F7FAF2" fill-opacity="0.12"/>
  </g>

  <g opacity="0.9">
    <path d="M1034 310C1138 234 1242 236 1346 316" stroke="#A6D4B8" stroke-width="3" stroke-linecap="round" stroke-opacity="0.34"/>
    <path d="M1034 642C1138 718 1242 716 1346 636" stroke="#A6D4B8" stroke-width="3" stroke-linecap="round" stroke-opacity="0.22"/>
    <path d="M1152 310C1192 366 1192 586 1152 642" stroke="#F7FAF2" stroke-width="2" stroke-linecap="round" stroke-dasharray="8 16" stroke-opacity="0.24"/>
    <path d="M1228 310C1188 366 1188 586 1228 642" stroke="#F7FAF2" stroke-width="2" stroke-linecap="round" stroke-dasharray="8 16" stroke-opacity="0.24"/>
  </g>

  <g opacity="0.78">
    <rect x="1114" y="186" width="188" height="42" rx="21" fill="#F7FAF2" fill-opacity="0.1" stroke="#F7FAF2" stroke-opacity="0.12"/>
    <circle cx="1142" cy="207" r="5" fill="#A6D4B8"/>
    <rect x="1162" y="202" width="104" height="10" rx="5" fill="#F7FAF2" fill-opacity="0.18"/>
    <rect x="1194" y="690" width="218" height="42" rx="21" fill="#F7FAF2" fill-opacity="0.08" stroke="#F7FAF2" stroke-opacity="0.1"/>
    <circle cx="1222" cy="711" r="5" fill="#A6D4B8"/>
    <rect x="1242" y="706" width="132" height="10" rx="5" fill="#F7FAF2" fill-opacity="0.16"/>
  </g>
</svg>
